# AST/ASF file generated using VICON BodyLanguage
# -----------------------------------------------
:version 1.10
:name VICON
:units
  mass 1.0
  length 0.45
  angle deg
:documentation
   .ast/.asf automatically generated from VICON data using
   VICON BodyBuilder and BodyLanguage model FoxedUp or BRILLIANT.MOD
:root
   order TX TY TZ RX RY RZ
   axis XYZ
   position 0 0 0  
   orientation 0 0 0 
:bonedata
  begin
     id 1 
     name lhipjoint
     direction 0.567725 -0.736092 0.368589 
     length 2.42353 
     axis 0 0 0  XYZ
  end
  begin
     id 2 
     name lfemur
     direction 0.34202 -0.939693 0  
     length 7.24894  
     axis 0 0 20  XYZ
    dof rx ry rz
    limits (-160.0 20.0)
           (-70.0 70.0)
           (-60.0 70.0)
  end
  begin
     id 3 
     name ltibia
     direction 0.34202 -0.939693 0   
     length 7.6997   
     axis 0 0 20   XYZ
    dof rx
    limits (-10.0 170.0)
  end
  begin
     id 4 
     name lfoot
     direction 0.100767 -0.276854 0.955614   
     length 2.37556   
     axis -90 7.62852e-016 20   XYZ
    dof rx rz
    limits (-45.0 90.0)
           (-70.0 20.0)
  end
  begin
     id 5 
     name ltoes
     direction 1.53592e-011 -4.21894e-011 1   
     length 1.18363   
     axis -90 7.62852e-016 20   XYZ
    dof rx
    limits (-90.0 20.0)
  end
  begin
     id 6 
     name rhipjoint
     direction -0.556459 -0.742938 0.372017   
     length 2.4012  
     axis 0 0 0  XYZ 
  end
  begin
     id 7 
     name rfemur
     direction -0.34202 -0.939693 0   
     length 7.5119   
     axis 0 0 -20   XYZ
    dof rx ry rz
    limits (-160.0 20.0)
           (-70.0 70.0)
           (-70.0 60.0)
  end
  begin
     id 8 
     name rtibia
     direction -0.34202 -0.939693 0   
     length 7.50155   
     axis 0 0 -20   XYZ
    dof rx
    limits (-10.0 170.0)
 end
 begin
     id 9 
     name rfoot
     direction -0.118427 -0.325376 0.938139   
     length 2.32487  
     axis -90 -7.62852e-016 -20   XYZ
    dof rx rz
    limits (-45.0 90.0)
           (-20.0 70.0)
  end
  begin
     id 10 
     name rtoes
     direction -1.53525e-011 -4.21868e-011 1   
     length 1.15233   
     axis -90 -7.62852e-016 -20   XYZ
    dof rx
    limits (-90.0 20.0)
  end
  begin
     id 11 
     name lowerback
     direction 0.0287568 0.999577 -0.00434502   
     length 2.15243   
     axis 0 0 0   XYZ
    dof rx ry rz
    limits (-20.0 45.0)
           (-30.0 30.0)
           (-30.0 30.0)
  end
  begin
     id 12 
     name upperback
     direction 0.0294009 0.99956 0.00404628   
     length 2.15427   
     axis 0 0 0   XYZ
    dof rx ry rz
    limits (-20.0 45.0)
           (-30.0 30.0)
           (-30.0 30.0)
  end
  begin
     id 13 
     name thorax
     direction 0.0151014 0.999868 0.0059419   
     length 2.14898   
     axis 0 0 0   XYZ
    dof rx ry rz
    limits (-20.0 45.0)
           (-30.0 30.0)
           (-30.0 30.0)
  end
  begin
     id 14 
     name lowerneck
     direction -0.0249197 0.989906 0.139515   
     length 1.6861   
     axis 0 0 0   XYZ
    dof rx ry rz
    limits (-20.0 45.0)
           (-30.0 30.0)
           (-30.0 30.0)
  end
  begin
     id 15 
     name upperneck
     direction 0.0438463 0.988795 -0.142693   
     length 1.71276   
     axis 0 0 0   XYZ
    dof rx ry rz
    limits (-20.0 45.0)
           (-30.0 30.0)
           (-30.0 30.0)
  end
  begin
     id 16
     name head
     direction 0.0148499 0.997845 -0.0639186  
     length 1.7209  
     axis 0 0 0   XYZ
    dof rx ry rz
    limits (-20.0 45.0)
           (-30.0 30.0)
           (-30.0 30.0)
  end
  begin
     id 17 
     name lclavicle
     direction 0.940298 0.323464 -0.105876  
     length 3.9048  
     axis 0 0 0   XYZ
    dof ry rz
    limits (-20.0 10.0)
           (0.0 20.0)
  end
  begin
     id 18 
     name lhumerus
     direction 1 -4.48954e-011 -4.9675e-028   
     length 4.6851   
     axis 180 -30 -90   XYZ
    dof rx ry rz
    limits (-60.0 90.0)
           (-90.0 90.0)
           (-90.0 90.0)
  end
  begin
     id 19
     name lradius
     direction 1 -4.48992e-011 -1.03359e-026   
     length 3.39626   
     axis 180 -30 -90   XYZ
    dof rx
    limits (-10.0 170.0)
  end
  begin
     id 20
     name lwrist
     direction 1 -4.48906e-011 -1.67336e-026   
     length 1.69813   
     axis 9.90442e-015 90 90   XYZ
    dof ry
    limits (-180.0 0.0)
 end
  begin
     id 21 
     name lhand
     direction 1 -4.49006e-011 -3.34673e-026   
     length 0.486078   
     axis 2.1355e-014 90 90   XYZ
    dof rx rz
    limits (-90.0 90.0)
           (-45.0 45.0)
  end
  begin
     id 22 
     name lfingers
     direction 1 -4.48992e-011 -6.69345e-026   
     length 0.391889   
     axis 4.27099e-014 90 90   XYZ
    dof rx
    limits (0.0 90.0)
  end
  begin
     id 23
     name lthumb
     direction 0.707107 -6.34926e-011 0.707107   
     length 0.562676   
     axis -90 45 2.85299e-015   XYZ
    dof rx rz
    limits (-45.0 45.0)
           (-45.0 45.0)
  end
  begin
     id 24 
     name rclavicle
     direction -0.882459 0.414895 -0.221648   
     length 3.44646  
     axis 0 0 0   XYZ 
    dof ry rz
    limits (-10.0 20.0)
           (-20.0 0.0)
  end
  begin
     id 25 
     name rhumerus
     direction -1 -4.48962e-011 -2.37984e-027  
     length 5.55576   
     axis 180 30 90   XYZ
    dof rx ry rz
    limits (-90.0 60.0)
           (-90.0 90.0)
           (-90.0 90.0)
  end
  begin
     id 26 
     name rradius
     direction -1 -4.48982e-011 -6.86791e-027   
     length 3.32774   
     axis 180 30 90   XYZ
    dof rx
    limits (-10.0 170.0)
  end
  begin
     id 27 
     name rwrist
     direction -1 -4.48961e-011 -1.67336e-026   
     length 1.66387   
     axis 9.90442e-015 -90 -90   XYZ
    dof ry
    limits (-180.0 0.0)
  end
  begin
     id 28
     name rhand
     direction -1 -4.4897e-011 -3.34673e-026   
     length 0.507628   
     axis 2.1355e-014 -90 -90   XYZ
    dof rx rz
    limits (-90.0 90.0)
           (-45.0 45.0)
  end
  begin
     id 29
     name rfingers
     direction -1 -4.48854e-011 -6.69345e-026   
     length 0.409263   
     axis 4.27099e-014 -90 -90   XYZ
    dof rx
    limits (0.0 90.0)
  end
  begin
     id 30
     name rthumb
     direction -0.707107 -6.34913e-011 0.707107   
     length 0.587622   
     axis -90 -45 -2.85299e-015   XYZ
    dof rx rz
    limits (-45.0 45.0)
           (-45.0 45.0)
  end
:hierarchy
  begin
    root lhipjoint rhipjoint lowerback
    lhipjoint lfemur
    lfemur ltibia
    ltibia lfoot
    lfoot ltoes
    rhipjoint rfemur
    rfemur rtibia
    rtibia rfoot
    rfoot rtoes
    lowerback upperback
    upperback thorax
    thorax lowerneck lclavicle rclavicle
    lowerneck upperneck
    upperneck head
    lclavicle lhumerus
    lhumerus lradius
    lradius lwrist
    lwrist lhand lthumb
    lhand lfingers
    rclavicle rhumerus
    rhumerus rradius
    rradius rwrist
    rwrist rhand rthumb
    rhand rfingers
  end

#!OML:ASF E:\motion texture\Top Level 1\Subject 1\Session 1\male.ASF
:FULLY-SPECIFIED
:DEGREES
68
root 42.7306 17.8444 6.35263 118.92 -84.1175 -109.786
lowerback -6.12637 -0.308468 3.59937
upperback -3.57406 -0.756108 3.34525
thorax -0.248551 -0.463296 1.38017
lowerneck -22.1114 -6.08314 -8.73031
upperneck 16.2306 -7.63614 9.36904
head 9.46924 -3.10594 3.55239
rclavicle -4.09372e-015 5.96354e-015
rhumerus -27.3845 23.688 -97.2125
rradius 59.5169
rwrist -13.2959
rhand 17.0851 -27.6139
rfingers 7.12502
rthumb 41.8106 -52.2671
lclavicle -4.09372e-015 5.96354e-015
lhumerus -30.6478 -16.5393 103.678
lradius 55.2805
lwrist 15.629
lhand 2.47662 32.7161
lfingers 7.12502
lthumb 27.9603 60.6539
rfemur -9.71391 2.90704 27.2322
rtibia 12.8307
rfoot -8.14681 -13.9978
rtoes 14.2625
lfemur -7.35583 -4.43838 -12.0687
ltibia 9.56738
lfoot -8.7111 4.79859
ltoes 4.427
69
root 42.7334 17.8443 6.34925 118.662 -84.1681 -109.522
lowerback -6.1442 -0.330499 3.54454
upperback -3.53618 -0.78434 3.35785
thorax -0.198602 -0.475279 1.42164
lowerneck -22.1155 -6.2434 -8.7207
upperneck 16.1615 -7.83824 9.30025
head 9.46206 -3.20685 3.4933
rclavicle 2.6339e-015 1.98785e-014
rhumerus -27.6139 23.7478 -97.285
rradius 59.7613
rwrist -13.4818
rhand 17.3457 -28.871
rfingers 7.12502
rthumb 42.0549 -53.4426
lclavicle 2.6339e-015 1.98785e-014
lhumerus -30.7321 -16.9151 103.828
lradius 55.4925
lwrist 15.8534
lhand 1.64095 33.5554
lfingers 7.12502
lthumb 27.1612 61.6208
rfemur -9.728 2.88143 27.2006
rtibia 12.837
rfoot -8.1714 -14.012
rtoes 14.3443
lfemur -7.38285 -4.45353 -12.0993
ltibia 9.57757
lfoot -8.69645 4.76488
ltoes 4.3521
70
root 42.7363 17.8444 6.34612 118.362 -84.1505 -109.209
lowerback -5.94283 -0.344106 3.54272
upperback -3.64515 -0.788649 3.40205
thorax -0.422345 -0.481282 1.47118
lowerneck -22.1165 -6.38927 -8.5891
upperneck 16.1995 -8.01951 9.01746
head 9.47331 -3.31244 3.34321
rclavicle 9.47333e-015 3.57812e-015
rhumerus -28.0888 23.959 -97.5004
rradius 59.8326
rwrist -14.003
rhand 16.3607 -29.1142
rfingers 7.12502
rthumb 41.1309 -53.9888
lclavicle 9.47333e-015 3.57812e-015
lhumerus -31.0397 -17.1338 104.043
lradius 55.6226
lwrist 15.9854
lhand 0.648225 33.9918
lfingers 7.12502
lthumb 26.2111 62.2019
rfemur -9.76831 2.87567 27.2446
rtibia 12.8716
rfoot -8.15687 -14.0146
rtoes 14.2833
lfemur -7.43284 -4.47489 -12.0439
ltibia 9.61893
lfoot -8.70515 4.75662
ltoes 4.54146
71
root 42.7388 17.8445 6.34374 118.371 -84.2305 -109.21
lowerback -5.53794 -0.376372 3.44687
upperback -3.88829 -0.796696 3.42072
thorax -0.896828 -0.491468 1.55078
lowerneck -22.0515 -6.52242 -8.62596
upperneck 16.399 -8.19332 8.92021
head 9.54494 -3.40627 3.28913
rclavicle 6.90777e-015 -8.74653e-015
rhumerus -28.8394 24.404 -97.9325
rradius 59.4703
rwrist -12.9923
rhand 13.6665 -26.2974
rfingers 7.12502
rthumb 38.595 -51.9322
lclavicle 6.90777e-015 -8.74653e-015
lhumerus -31.5448 -17.1835 104.278
lradius 55.7773
lwrist 16.2893
lhand -0.116501 34.1953
lfingers 7.12502
lthumb 25.4788 62.5121
rfemur -9.78489 2.83595 27.1571
rtibia 12.8593
rfoot -8.15699 -13.9881
rtoes 14.5375
lfemur -7.45536 -4.53116 -12.1342
ltibia 9.62439
lfoot -8.71361 4.74418
ltoes 4.61447
72
root 42.7412 17.8446 6.34084 118.274 -84.2096 -109.097
lowerback -5.79592 -0.391017 3.5303
upperback -3.6646 -0.839932 3.39703
thorax -0.52395 -0.507548 1.47201
lowerneck -22.2339 -6.65827 -8.64418
upperneck 16.2541 -8.36965 9.01937
head 9.54912 -3.47424 3.29448
rclavicle 4.34841e-016 -1.15295e-014
rhumerus -28.6548 24.5379 -97.9683
rradius 59.4697
rwrist -13.2602
rhand 13.2177 -26.2246
rfingers 7.12502
rthumb 38.1714 -51.9769
lclavicle 4.34841e-016 -1.15295e-014
lhumerus -31.2752 -17.3749 104.15
lradius 55.8589
lwrist 16.7666
lhand -0.606699 34.9085
lfingers 7.12502
lthumb 25.0091 63.2915
rfemur -9.8217 2.79921 27.1934
rtibia 12.8924
rfoot -8.16147 -13.9424
rtoes 14.4352
lfemur -7.48481 -4.48919 -12.0915
ltibia 9.61639
lfoot -8.67632 4.76023
ltoes 4.41948
73
root 42.7471 17.8483 6.3326 122.014 -84.0142 -112.953
lowerback -6.84656 -0.274129 3.70731
upperback -2.72844 -0.775715 3.22282
thorax 1.02054 -0.445741 1.17927
lowerneck -22.5438 -6.79072 -8.59862
upperneck 15.395 -8.55602 9.42188
head 9.34119 -3.51478 3.38781
rclavicle 4.2366e-015 -2.06736e-014
rhumerus -27.1252 24.7976 -97.7493
rradius 59.5109
rwrist -14.4298
rhand 13.3482 -27.4236
rfingers 7.12502
rthumb 38.2946 -53.1421
lclavicle 4.2366e-015 -2.06736e-014
lhumerus -30.0084 -17.9391 103.434
lradius 55.8394
lwrist 17.1002
lhand -0.855689 34.9904
lfingers 7.12502
lthumb 24.7705 63.4064
rfemur -9.78432 3.05504 27.2486
rtibia 13.0083
rfoot -8.20995 -13.7612
rtoes 14.5202
lfemur -7.23192 -4.21208 -12.0659
ltibia 9.48949
lfoot -8.65642 4.90596
ltoes 4.18979
74
root 42.7518 17.851 6.32564 124.664 -83.8698 -115.668
lowerback -6.64134 -0.200912 3.69191
upperback -2.75495 -0.662924 3.21124
thorax 0.879957 -0.390946 1.18588
lowerneck -22.4881 -6.86436 -8.6305
upperneck 15.4451 -8.66474 9.45397
head 9.36284 -3.56516 3.38764
rclavicle -3.10912e-015 3.97569e-015
rhumerus -27.4523 25.0515 -97.9761
rradius 59.3943
rwrist -14.367
rhand 13.4571 -28.1709
rfingers 7.12502
rthumb 38.3974 -53.8609
lclavicle -3.10912e-015 3.97569e-015
lhumerus -30.1761 -17.8804 103.397
lradius 55.9107
lwrist 17.4484
lhand -0.669252 35.0849
lfingers 7.12502
lthumb 24.9492 63.4762
rfemur -9.79708 3.25382 27.2775
rtibia 13.1384
rfoot -8.20573 -13.6517
rtoes 14.5486
lfemur -7.07838 -4.06032 -12.0575
ltibia 9.40083
lfoot -8.66594 5.02142
ltoes 4.47693
75
root 42.7544 17.851 6.32151 125.242 -83.8384 -116.233
lowerback -6.74707 -0.192436 3.71563
upperback -2.64798 -0.661761 3.19348
thorax 1.04854 -0.386826 1.15315
lowerneck -22.5814 -6.99936 -8.66132
upperneck 15.4285 -8.84341 9.50368
head 9.39496 -3.64218 3.37908
rclavicle -1.89715e-014 3.45885e-014
rhumerus -27.4129 25.2062 -97.9962
rradius 59.4538
rwrist -14.6645
rhand 13.8841 -29.5232
rfingers 7.12502
rthumb 38.8002 -55.1002
lclavicle -1.89715e-014 3.45885e-014
lhumerus -30.1259 -17.9772 103.313
lradius 55.9221
lwrist 17.7816
lhand -0.755738 34.8228
lfingers 7.12502
lthumb 24.8663 63.2256
rfemur -9.82587 3.27924 27.2921
rtibia 13.1453
rfoot -8.15734 -13.5672
rtoes 14.3922
lfemur -7.08525 -3.98342 -12.0376
ltibia 9.40082
lfoot -8.67898 5.04519
ltoes 4.45334
76
root 42.7571 17.8509 6.31695 126.12 -83.794 -117.105
lowerback -6.31291 -0.169767 3.63434
upperback -2.90646 -0.594573 3.24564
thorax 0.542679 -0.362263 1.26118
lowerneck -22.4151 -7.10056 -8.71401
upperneck 15.5941 -8.97516 9.41287
head 9.43403 -3.71926 3.33776
rclavicle 7.31155e-015 -2.38542e-015
rhumerus -28.0378 25.3048 -98.1562
rradius 59.5404
rwrist -15.3333
rhand 12.768 -30.0995
rfingers 7.12502
rthumb 37.7468 -55.9672
lclavicle 7.31155e-015 -2.38542e-015
lhumerus -30.6438 -17.8501 103.506
lradius 56.0282
lwrist 18.3418
lhand -0.798029 35.1305
lfingers 7.12502
lthumb 24.8258 63.5389
rfemur -9.85618 3.34134 27.2992
rtibia 13.1706
rfoot -8.19267 -13.5411
rtoes 14.3857
lfemur -7.08423 -3.87519 -12.0294
ltibia 9.39936
lfoot -8.65877 5.07321
ltoes 4.30416
77
root 42.7603 17.85 6.31415 125.79 -83.7963 -116.74
lowerback -6.04252 -0.188558 3.6221
upperback -3.0546 -0.599914 3.29621
thorax 0.240308 -0.370322 1.32248
lowerneck -22.4383 -7.2319 -8.79634
upperneck 15.7398 -9.12967 9.36237
head 9.50497 -3.79865 3.30802
rclavicle -9.3289e-015 6.59965e-014
rhumerus -28.4809 25.3359 -98.1903
rradius 59.6396
rwrist -15.4484
rhand 12.9737 -31.735
rfingers 7.12502
rthumb 37.9411 -57.5502
lclavicle -9.3289e-015 6.59965e-014
lhumerus -30.9141 -17.8267 103.619
lradius 56.0852
lwrist 18.8512
lhand -1.01779 35.2426
lfingers 7.12502
lthumb 24.6152 63.6798
rfemur -9.8621 3.34008 27.3266
rtibia 13.0823
rfoot -8.13034 -13.514
rtoes 14.7266
lfemur -7.16197 -3.86251 -11.987
ltibia 9.4465
lfoot -8.67919 5.04496
ltoes 4.24349
